# xmcd CD database file
#
# Track frame offsets:
#	150
#	30867
#	77357
#	149617
#	189182
#	226950
#	254202
#
# Disc length: 4436 seconds
#
# Revision: 0
# Processed by: cddbd v1.5.2PL0 Copyright (c) Steve Scherf et al.
# Submitted via: CDex 1.51
#
DISCID=51115207
DTITLE=Branford Marsalis Quartet - Contemporary Jazz
DYEAR=2000
DGENRE=Jazz
TTITLE0=In The Crease
TTITLE1=Requiem
TTITLE2=Elysium
TTITLE3=Cheek To Cheek
TTITLE4=Tain Mutiny
TTITLE5=Ayanna
TTITLE6=Countronious Rex
EXTD=YEAR: 2000
EXTT0=
EXTT1=
EXTT2=
EXTT3=
EXTT4=
EXTT5=
EXTT6=
PLAYORDER=
